<?xml version="1.0" encoding="utf-8"?>
<!-- Generator: Adobe Illustrator 21.1.0, SVG Export Plug-In . SVG Version: 6.00 Build 0)  -->
<svg version="1.1" id="Layer_1" xmlns="http://www.w3.org/2000/svg" xmlns:xlink="http://www.w3.org/1999/xlink" x="0px" y="0px"
	 viewBox="0 0 1280 600" style="enable-background:new 0 0 1280 600;" xml:space="preserve">
<style type="text/css">
	.st0{fill:#FFFFFF;}
</style>
<image style="overflow:visible;" width="1530" height="797" xlink:href="../../../busmap 2.png"  transform="matrix(0.24 0 0 0.24 456 204)">
</image>
<g>
	<path class="st0" d="M499.4,309.2v1.6c0,0.3-0.2,0.5-0.5,0.5h-0.2v3.4c0,0.3-0.2,0.5-0.5,0.5h-0.2v0.8c0,0.3-0.2,0.5-0.5,0.5h-1
		c-0.3,0-0.5-0.2-0.5-0.5v-0.8h-3.8v0.8c0,0.3-0.2,0.5-0.5,0.5h-1c-0.3,0-0.5-0.2-0.5-0.5v-0.8h-0.2c-0.3,0-0.5-0.2-0.5-0.5v-3.4
		h-0.2c-0.3,0-0.5-0.2-0.5-0.5v-1.6c0-0.3,0.2-0.5,0.5-0.5h0.2v-1c0-0.9,2-1.6,4.5-1.6c2.5,0,4.5,0.7,4.5,1.6v1h0.2
		C499.2,308.7,499.4,309,499.4,309.2z M491.4,312.6c-0.4,0-0.8,0.4-0.8,0.8s0.4,0.8,0.8,0.8s0.8-0.4,0.8-0.8
		S491.8,312.6,491.4,312.6z M497.2,312.6c-0.4,0-0.8,0.4-0.8,0.8s0.4,0.8,0.8,0.8s0.8-0.4,0.8-0.8S497.6,312.6,497.2,312.6z
		 M497.8,311.5v-2.9c0-0.3-0.2-0.5-0.5-0.5h-6.1c-0.3,0-0.5,0.2-0.5,0.5v2.9c0,0.3,0.2,0.5,0.5,0.5h6.1
		C497.6,312,497.8,311.7,497.8,311.5z"/>
</g>
</svg>
